<svg width="456" height="61" viewBox="0 0 456 61" fill="none" xmlns="http://www.w3.org/2000/svg">
<path d="M29.184 17.4719C44.48 18.7519 55.36 21.5679 55.36 32.5119C55.36 42.4959 46.592 48.8959 29.76 48.8959C17.92 48.8959 7.42398 45.8879 -2.19345e-05 40.5759L8.57598 30.7199C13.568 34.1119 21.376 36.7999 30.016 36.7999C35.264 36.7999 37.76 36.0319 37.76 34.4319C37.76 32.8959 36.032 32.1919 28.544 31.5519C14.4 30.3359 2.04798 27.0719 2.04798 16.5759C2.04798 6.52786 12.992 1.02386 27.84 1.02386C37.12 1.02386 46.72 3.13586 53.504 7.35986L45.376 17.2799C40.192 14.1439 34.368 12.9279 27.904 12.9279C24 12.9279 19.648 13.3119 19.648 15.0399C19.648 16.5119 22.72 16.9599 29.184 17.4719ZM83.149 48.8959C68.365 48.8959 58.829 41.5359 58.829 29.4399C58.829 17.3439 68.365 9.98386 83.149 9.98386C97.933 9.98386 107.469 17.3439 107.469 29.4399C107.469 41.5359 97.933 48.8959 83.149 48.8959ZM83.149 36.3519C87.885 36.3519 91.213 33.7919 91.213 29.4399C91.213 25.0879 87.885 22.5279 83.149 22.5279C78.477 22.5279 75.085 25.0879 75.085 29.4399C75.085 33.7919 78.477 36.3519 83.149 36.3519ZM129.774 47.3599H112.494V-0.000137329H129.774V47.3599ZM159.149 48.8959C144.365 48.8959 134.829 41.5359 134.829 29.4399C134.829 17.3439 144.365 9.98386 159.149 9.98386C173.933 9.98386 183.469 17.3439 183.469 29.4399C183.469 41.5359 173.933 48.8959 159.149 48.8959ZM159.149 36.3519C163.885 36.3519 167.213 33.7919 167.213 29.4399C167.213 25.0879 163.885 22.5279 159.149 22.5279C154.477 22.5279 151.085 25.0879 151.085 29.4399C151.085 33.7919 154.477 36.3519 159.149 36.3519ZM210.132 23.1679C221.78 23.7439 231.252 27.0719 231.252 35.3279C231.252 42.6239 224.212 48.8959 208.852 48.8959C198.804 48.8959 191.06 46.2079 185.684 42.9439L192.404 34.5599C196.564 36.7999 202.132 38.6559 209.364 38.6559C213.268 38.6559 214.996 38.3359 214.996 37.1839C214.996 36.0959 213.524 35.7119 208.404 35.4559C197.716 34.8799 187.156 31.3599 187.156 22.9119C187.156 15.1039 196.18 9.98386 209.108 9.98386C217.236 9.98386 224.596 11.4559 229.908 14.2719L223.06 22.9759C219.348 21.0559 214.42 20.2239 209.044 20.2239C205.588 20.2239 203.22 20.5439 203.22 21.6319C203.22 22.7199 205.204 22.9119 210.132 23.1679ZM266.397 48.6399C261.277 48.6399 256.605 47.1679 253.149 43.0719V60.1599H235.869V11.5199H253.149V15.8079C256.605 11.7119 261.277 10.2399 266.397 10.2399C277.469 10.2399 284.893 17.3439 284.893 29.4399C284.893 41.5359 277.469 48.6399 266.397 48.6399ZM261.149 22.3999C258.397 22.3999 255.453 23.2959 253.149 26.2399V32.6399C255.453 35.5839 258.397 36.4799 261.149 36.4799C266.013 36.4799 268.637 33.6639 268.637 29.4399C268.637 25.2159 266.013 22.3999 261.149 22.3999ZM310.796 10.1119C325.388 10.1119 333.964 16.2559 333.964 27.1999V40.7039C333.964 43.2639 334.412 45.3119 335.436 47.3599H318.156C317.516 46.6559 317.068 45.6319 317.068 44.6719V44.4799C314.38 47.1039 309.836 48.6399 304.396 48.6399C297.1 48.6399 288.012 45.7599 288.012 36.7999C288.012 27.8399 297.1 24.9599 304.396 24.9599C309.836 24.9599 314.38 26.4959 317.068 29.1199V26.9439C317.068 23.4879 313.548 21.3119 307.148 21.3119C303.82 21.3119 299.212 21.8879 294.604 23.8079L291.724 13.2479C296.972 11.1359 304.844 10.1119 310.796 10.1119ZM317.324 36.9919V36.6079C315.276 34.4319 312.204 33.8559 309.964 33.8559C307.404 33.8559 304.652 34.6239 304.652 36.7999C304.652 38.9759 307.404 39.7439 309.964 39.7439C312.204 39.7439 315.276 39.1679 317.324 36.9919ZM383.767 37.8239C380.823 43.7759 374.231 48.8959 362.391 48.8959C347.735 48.8959 338.391 41.4719 338.391 29.4399C338.391 17.4079 347.735 9.98386 362.391 9.98386C374.231 9.98386 380.695 15.2319 383.511 20.9279L369.751 26.5599C368.279 23.6159 365.655 22.5279 362.583 22.5279C357.783 22.5279 354.647 25.1519 354.647 29.4399C354.647 33.7279 357.783 36.3519 362.583 36.3519C365.591 36.3519 368.407 35.3279 370.007 32.1919L383.767 37.8239ZM402.274 32.9599C403.49 36.4799 406.818 37.6319 412.194 37.6319C417.186 37.6319 419.81 36.6079 423.074 34.4319L431.266 42.6879C426.018 47.2959 419.17 48.8959 411.234 48.8959C395.234 48.8959 385.954 41.6639 385.954 29.4399C385.954 17.3439 395.106 9.98386 409.89 9.98386C422.626 9.98386 432.674 16.2559 432.674 28.8639C432.674 30.6559 432.482 31.8719 432.162 32.9599H402.274ZM410.018 20.9919C406.434 20.9919 403.682 22.2719 402.466 25.2799H417.25C416.162 22.5279 413.858 20.9919 410.018 20.9919ZM445.747 48.3839C440.115 48.3839 436.211 44.7999 436.211 40.1919C436.211 35.5839 440.115 31.9999 445.747 31.9999C451.379 31.9999 455.283 35.5839 455.283 40.1919C455.283 44.7999 451.379 48.3839 445.747 48.3839Z" fill="#1F2937"/>
</svg>
